# Blender 3.5.1
# www.blender.org
mtllib obstacle.mtl
o Icosphere
v -0.137086 -0.778556 0.006710
v 0.723607 -0.447220 0.525725
v -0.276388 -0.447220 0.850649
v -0.506707 -0.338696 0.158414
v -0.276388 -0.447220 -0.850649
v 0.211992 -0.555759 -0.480650
v 0.276388 0.081986 0.850649
v -0.723607 0.447220 0.525725
v -0.468769 0.368041 -0.568835
v 0.097859 0.012397 -0.916520
v 0.879159 0.246626 0.044886
v -0.447275 1.000000 0.000000
v -0.162456 -0.850654 0.499995
v 0.425323 -0.850654 0.309011
v 0.262869 -0.525738 0.809012
v 0.850648 -0.525736 0.000000
v 0.288562 -0.630729 -0.302584
v -0.590750 -0.666123 -0.127608
v -0.261124 -0.708026 0.429840
v -0.298923 -0.632510 -0.494459
v -0.309883 -0.486552 -0.508685
v 0.262869 -0.525738 -0.809012
v 0.834745 0.555063 0.493876
v 0.354964 0.147512 -0.317147
v 0.000000 0.000000 1.000000
v 0.587786 0.000000 0.809017
v -0.579600 0.071574 0.278349
v -0.216328 0.071574 0.778353
v -0.560888 0.053683 -0.449326
v -0.572751 0.039184 -0.317701
v 0.076170 -0.108539 -0.763941
v -0.099883 0.121398 -0.563190
v 0.203537 0.318133 0.163828
v -0.262869 0.525738 0.809012
v -0.595810 0.446557 -0.043110
v 0.073102 0.714390 -0.542871
v 0.691952 0.293598 -0.582298
v -0.284820 0.485421 0.499995
v 0.078454 0.850652 0.000000
v -0.425323 0.850654 0.309011
v -0.170485 0.771475 -0.352122
v 0.166218 0.618516 -0.582297
v -0.377932 -0.736509 0.496769
v -0.623516 -0.367180 0.225343
v -0.707559 -0.694607 -0.060679
v 0.060521 -0.037405 1.186263
v 0.648306 -0.037405 0.995280
v 0.323389 -0.563142 0.995275
v 0.989180 -0.545348 -0.020741
v 0.862140 -0.466832 0.504984
v 0.973278 0.535451 0.473135
v 0.165228 0.991056 -0.042894
v 0.252992 0.758920 -0.625191
v 0.778726 0.434002 -0.625193
vn -0.0477 -0.9880 -0.1469
vn 0.7002 -0.6617 0.2680
vn -0.1952 -0.9690 -0.1517
vn -0.1714 -0.9594 -0.2242
vn 0.1038 -0.9454 -0.3090
vn -0.0773 0.4134 -0.9072
vn 0.0247 -0.3304 0.9435
vn -0.8687 -0.2748 0.4121
vn -0.9042 -0.4052 -0.1352
vn 0.9055 0.3863 0.1756
vn 0.8461 -0.0771 0.5273
vn -0.6749 0.1779 0.7161
vn -0.9847 -0.1744 -0.0018
vn -0.2762 0.5005 -0.8205
vn 0.8615 -0.0579 -0.5044
vn 0.4606 0.8533 0.2445
vn -0.4713 0.6617 0.5831
vn -0.7002 0.6617 -0.2680
vn 0.1132 0.4699 -0.8754
vn 0.6021 0.7892 -0.1206
vn 0.2585 0.9101 -0.3238
vn -0.1322 -0.2140 -0.9679
vn 0.2725 0.4409 -0.8552
vn 0.0194 0.8456 -0.5335
vn 0.6295 0.3202 0.7080
vn -0.3760 0.6387 -0.6713
vn -0.7762 -0.5875 -0.2288
vn -0.7156 0.6054 -0.3483
vn -0.8353 0.5165 -0.1883
vn 0.8980 0.4177 0.1381
vn 0.9454 0.3076 -0.1073
vn 0.6354 0.7586 -0.1441
vn 0.2030 0.7146 0.6695
vn 0.6095 0.3604 0.7061
vn 0.1975 0.3303 0.9230
vn 0.2867 -0.9452 -0.1564
vn 0.5026 -0.8473 0.1719
vn 0.5771 -0.6780 -0.4553
vn -0.8085 0.2540 -0.5308
vn -0.2532 0.1068 -0.9615
vn 0.3066 -0.4154 -0.8564
vn -0.9617 0.1137 -0.2494
vn -0.9987 -0.0506 -0.0087
vn -0.9509 -0.2240 -0.2134
vn -0.5070 -0.1097 0.8550
vn -0.7296 -0.1202 0.6732
vn 0.3133 0.4587 0.8315
vn 0.2795 0.9167 0.2855
vn -0.5373 0.5843 0.6081
vn -0.0127 0.8236 -0.5670
vn -0.8640 -0.3276 -0.3825
vn -0.8655 -0.3484 -0.3599
vn 0.1299 0.4149 -0.9005
vn -0.9638 0.2603 -0.0582
vn -0.9049 -0.4065 -0.1263
vn -0.9044 -0.3864 -0.1812
vn -0.6636 -0.5719 0.4822
vn -0.7907 -0.2114 0.5745
vn -0.9900 0.1009 -0.0984
vn 0.2543 0.5683 0.7825
vn 0.7947 -0.4911 -0.3568
vn 0.5346 -0.3304 0.7779
vn -0.2175 -0.8144 0.5380
vn 0.7578 0.2804 -0.5892
vn 0.5982 0.0641 -0.7988
vn 0.4851 0.8608 0.1539
vn 0.0702 -0.9760 -0.2059
vn -0.0924 -0.8809 -0.4641
vn -0.9907 -0.0848 -0.1068
vn -0.7717 -0.1188 -0.6248
vn -0.7912 0.5047 -0.3453
vn 0.1464 -0.9762 -0.1599
vn -0.8201 -0.3414 0.4593
vn -0.8493 -0.4619 0.2555
vn 0.4108 -0.7636 -0.4981
vn 0.3661 -0.8466 -0.3863
vn 0.0691 -0.9337 -0.3512
vn -0.0385 -0.6617 0.7488
vn 0.1876 -0.7947 0.5773
vn 0.4713 -0.6617 0.5831
vn -0.8489 -0.2070 0.4864
vn -0.4934 0.6406 -0.5884
vn 0.2374 0.6728 0.7007
vn 0.3035 -0.1876 0.9342
vn -0.8526 -0.4911 0.1784
vn 0.0580 0.9822 0.1784
vn 0.9638 -0.0990 0.2477
vn 0.1501 0.0148 0.9886
vn -0.1219 -0.9855 0.1177
vn 0.5088 0.8233 -0.2515
vn 0.6117 -0.1402 0.7786
vn -0.8496 0.4332 -0.3008
vt 0.181819 0.000000
vt 0.909091 0.000000
vt 0.727273 0.000000
vt 0.545455 0.000000
vt 0.363637 0.000000
vt 0.272728 0.157461
vt 1.000000 0.157461
vt 0.090910 0.157461
vt 0.818182 0.157461
vt 0.636364 0.157461
vt 0.454546 0.157461
vt 0.181819 0.314921
vt 0.000000 0.314921
vt 0.909091 0.314921
vt 0.727273 0.314921
vt 0.545455 0.314921
vt 0.363637 0.314921
vt 0.454546 0.472382
vt 0.636364 0.472382
vt 0.818182 0.472382
vt 0.090910 0.472382
vt 0.272728 0.472382
vt 0.954545 0.078731
vt 0.136365 0.078731
vt 0.318182 0.078731
vt 0.227273 0.078731
vt 0.181819 0.157461
vt 0.363637 0.157461
vt 0.500000 0.078731
vt 0.409092 0.078731
vt 0.863636 0.078731
vt 0.772727 0.078731
vt 0.909091 0.157461
vt 0.590909 0.078731
vt 0.681818 0.078731
vt 0.727273 0.157461
vt 0.545455 0.157461
vt 0.318182 0.236191
vt 0.409092 0.236191
vt 0.136365 0.236191
vt 0.227273 0.236191
vt 0.863636 0.236191
vt 0.045455 0.236191
vt 0.954545 0.236191
vt 0.681818 0.236191
vt 0.772727 0.236191
vt 0.500000 0.236191
vt 0.590909 0.236191
vt 0.272728 0.314921
vt 0.090910 0.314921
vt 0.818182 0.314921
vt 0.636364 0.314921
vt 0.454546 0.314921
vt 0.136365 0.393651
vt 0.227273 0.393651
vt 0.318182 0.393651
vt 0.409092 0.393651
vt 0.863636 0.393651
vt 0.045455 0.393651
vt 0.681818 0.393651
vt 0.772727 0.393651
vt 0.590909 0.393651
vt 0.500000 0.393651
vt 0.909091 0.157461
vt 0.818182 0.157461
vt 0.863636 0.078731
vt 0.772727 0.078731
vt 0.136365 0.236191
vt 0.227273 0.236191
vt 0.181819 0.157461
vt 0.363637 0.157461
vt 0.272728 0.157461
vt 0.318182 0.236191
vt 0.409092 0.393651
vt 0.500000 0.393651
vt 0.454546 0.314921
s 0
f 1/1/1 14/26/1 13/24/1
f 2/6/2 14/25/2 16/28/2
f 1/2/3 13/23/3 18/31/3
f 1/3/4 18/32/4 20/35/4
f 1/4/5 20/34/5 17/29/5
f 16/28/6 23/38/6 51/73/6 49/71/6
f 3/8/7 15/27/7 25/40/7
f 4/9/8 19/33/8 27/42/8
f 5/10/9 21/36/9 29/45/9
f 6/11/10 22/37/10 31/47/10
f 2/6/11 23/38/11 26/41/11
f 3/8/12 25/40/12 28/43/12
f 4/9/13 27/42/13 30/46/13
f 5/10/14 29/45/14 32/48/14
f 6/11/15 31/47/15 24/39/15
f 7/12/16 33/49/16 38/55/16
f 8/13/17 34/50/17 40/59/17
f 9/15/18 35/51/18 41/61/18
f 10/16/19 36/52/19 42/62/19
f 11/17/20 37/53/20 39/57/20
f 39/57/21 42/63/21 12/18/21
f 37/53/22 42/63/22 53/75/22 54/76/22
f 37/53/23 10/16/23 42/63/23
f 42/62/24 41/60/24 12/19/24
f 42/62/25 36/52/25 41/60/25
f 36/52/26 9/15/26 41/60/26
f 41/61/27 40/58/27 12/20/27
f 41/61/28 35/51/28 40/58/28
f 35/51/29 8/14/29 40/58/29
f 40/59/30 38/54/30 12/21/30
f 40/59/31 34/50/31 38/54/31
f 34/50/32 7/12/32 38/54/32
f 38/55/33 39/56/33 12/22/33
f 38/55/34 33/49/34 39/56/34
f 33/49/35 11/17/35 39/56/35
f 24/39/36 37/53/36 11/17/36
f 24/39/37 31/47/37 37/53/37
f 31/47/38 10/16/38 37/53/38
f 32/48/39 36/52/39 10/16/39
f 32/48/40 29/45/40 36/52/40
f 29/45/41 9/15/41 36/52/41
f 30/46/42 35/51/42 9/15/42
f 30/46/43 27/42/43 35/51/43
f 27/42/44 8/14/44 35/51/44
f 28/43/45 34/50/45 8/13/45
f 28/43/46 25/40/46 34/50/46
f 25/40/47 7/12/47 34/50/47
f 26/41/48 33/49/48 7/12/48
f 26/41/49 23/38/49 33/49/49
f 23/38/50 11/17/50 33/49/50
f 31/47/51 32/48/51 10/16/51
f 31/47/52 22/37/52 32/48/52
f 22/37/53 5/10/53 32/48/53
f 29/45/54 30/46/54 9/15/54
f 29/45/55 21/36/55 30/46/55
f 21/36/56 4/9/56 30/46/56
f 27/42/57 28/44/57 8/14/57
f 27/42/58 19/33/58 28/44/58
f 19/33/59 3/7/59 28/44/59
f 25/40/60 26/41/60 7/12/60
f 15/27/61 26/41/61 47/69/61 48/70/61
f 15/27/62 2/6/62 26/41/62
f 23/38/63 24/39/63 11/17/63
f 23/38/64 16/28/64 24/39/64
f 16/28/65 6/11/65 24/39/65
f 17/29/66 22/37/66 6/11/66
f 17/29/67 20/34/67 22/37/67
f 20/34/68 5/10/68 22/37/68
f 20/35/69 21/36/69 5/10/69
f 20/35/70 18/32/70 21/36/70
f 18/32/71 4/9/71 21/36/71
f 18/31/72 19/33/72 43/64/72 45/66/72
f 18/31/73 13/23/73 19/33/73
f 13/23/74 3/7/74 19/33/74
f 16/28/75 17/30/75 6/11/75
f 16/28/76 14/25/76 17/30/76
f 14/25/77 1/5/77 17/30/77
f 13/24/78 15/27/78 3/8/78
f 13/24/79 14/26/79 15/27/79
f 14/26/80 2/6/80 15/27/80
f 45/66/81 43/64/81 44/65/81
f 4/9/82 18/32/82 45/67/82 44/65/82
f 19/33/83 4/9/83 44/65/83 43/64/83
f 46/68/84 48/70/84 47/69/84
f 25/40/85 15/27/85 48/70/85 46/68/85
f 26/41/86 25/40/86 46/68/86 47/69/86
f 50/72/87 49/71/87 51/73/87
f 23/38/88 2/6/88 50/72/88 51/73/88
f 2/6/89 16/28/89 49/71/89 50/72/89
f 52/74/90 54/76/90 53/75/90
f 39/57/91 37/53/91 54/76/91 52/74/91
f 42/63/92 39/57/92 52/74/92 53/75/92
