# Blender v2.83.18 OBJ File: ''
# www.blender.org
mtllib box.mtl
o Box_Cube.001
v -0.539011 0.673763 0.539011
v -0.539011 0.673763 -0.539011
v 0.539011 0.673763 -0.539011
v 0.539011 0.673763 0.539011
v 0.673763 0.539011 -0.539011
v 0.673763 -0.539011 -0.539011
v 0.673763 -0.539011 0.539011
v 0.673763 0.539011 0.539011
v -0.539011 -0.539011 0.673763
v -0.539011 0.539011 0.673763
v 0.539011 0.539011 0.673763
v 0.539011 -0.539011 0.673763
v -0.673763 -0.539011 -0.539011
v -0.673763 -0.539011 0.539011
v -0.673763 0.539011 0.539011
v -0.673763 0.539011 -0.539011
v -0.539011 0.539011 -0.673763
v -0.539011 -0.539011 -0.673763
v 0.539011 -0.539011 -0.673763
v 0.539011 0.539011 -0.673763
v -0.539011 -0.673763 -0.539011
v -0.539011 -0.673763 0.539011
v 0.539011 -0.673763 -0.539011
v 0.539011 -0.673763 0.539011
v -0.675000 -0.750000 0.675000
v -0.675000 0.750000 0.675000
v -0.675000 -0.750000 -0.675000
v -0.675000 0.750000 -0.675000
v 0.675000 -0.750000 0.675000
v 0.675000 0.750000 0.675000
v 0.675000 -0.750000 -0.675000
v 0.675000 0.750000 -0.675000
v -0.600000 0.750000 0.600000
v -0.600000 0.750000 -0.600000
v 0.600000 0.750000 -0.600000
v 0.600000 0.750000 0.600000
v 0.750000 0.600000 -0.600000
v 0.750000 -0.600000 -0.600000
v 0.750000 -0.600000 0.600000
v 0.750000 0.600000 0.600000
v -0.600000 -0.600000 0.750000
v -0.600000 0.600000 0.750000
v 0.600000 0.600000 0.750000
v 0.600000 -0.600000 0.750000
v -0.750000 -0.600000 -0.600000
v -0.750000 -0.600000 0.600000
v -0.750000 0.600000 0.600000
v -0.750000 0.600000 -0.600000
v -0.600000 0.600000 -0.750000
v -0.600000 -0.600000 -0.750000
v 0.600000 -0.600000 -0.750000
v 0.600000 0.600000 -0.750000
v -0.600000 -0.750000 -0.600000
v -0.600000 -0.750000 0.600000
v 0.600000 -0.750000 -0.600000
v 0.600000 -0.750000 0.600000
v -0.539011 0.673763 0.539011
v -0.539011 0.673763 -0.539011
v 0.539011 0.673763 -0.539011
v 0.539011 0.673763 0.539011
v 0.673763 0.539011 -0.539011
v 0.673763 -0.539011 -0.539011
v 0.673763 -0.539011 0.539011
v 0.673763 0.539011 0.539011
v -0.539011 -0.539011 0.673763
v -0.539011 0.539011 0.673763
v 0.539011 0.539011 0.673763
v 0.539011 -0.539011 0.673763
v -0.673763 -0.539011 -0.539011
v -0.673763 -0.539011 0.539011
v -0.673763 0.539011 0.539011
v -0.673763 0.539011 -0.539011
v -0.539011 0.539011 -0.673763
v -0.539011 -0.539011 -0.673763
v 0.539011 -0.539011 -0.673763
v 0.539011 0.539011 -0.673763
v -0.539011 -0.673763 -0.539011
v -0.539011 -0.673763 0.539011
v 0.539011 -0.673763 -0.539011
v 0.539011 -0.673763 0.539011
vt 0.625000 0.500000
vt 0.875000 0.500000
vt 0.875000 0.750000
vt 0.625000 0.750000
vt 0.375000 0.500000
vt 0.625000 0.500000
vt 0.625000 0.750000
vt 0.375000 0.750000
vt 0.375000 0.750000
vt 0.625000 0.750000
vt 0.625000 1.000000
vt 0.375000 1.000000
vt 0.375000 0.000000
vt 0.625000 0.000000
vt 0.625000 0.250000
vt 0.375000 0.250000
vt 0.375000 0.250000
vt 0.625000 0.250000
vt 0.625000 0.500000
vt 0.375000 0.500000
vt 0.125000 0.500000
vt 0.375000 0.500000
vt 0.375000 0.750000
vt 0.125000 0.750000
vt 0.375000 0.000000
vt 0.625000 0.000000
vt 0.625000 0.000000
vt 0.375000 0.000000
vt 0.625000 0.500000
vt 0.375000 0.500000
vt 0.375000 0.500000
vt 0.625000 0.500000
vt 0.625000 0.750000
vt 0.625000 0.750000
vt 0.625000 0.500000
vt 0.375000 0.000000
vt 0.625000 0.000000
vt 0.375000 0.750000
vt 0.125000 0.750000
vt 0.125000 0.750000
vt 0.375000 0.750000
vt 0.625000 0.500000
vt 0.625000 0.750000
vt 0.375000 0.750000
vt 0.375000 0.750000
vt 0.625000 0.750000
vt 0.625000 0.250000
vt 0.625000 0.000000
vt 0.625000 0.250000
vt 0.625000 1.000000
vt 0.625000 1.000000
vt 0.125000 0.500000
vt 0.125000 0.500000
vt 0.375000 0.500000
vt 0.375000 0.500000
vt 0.125000 0.750000
vt 0.375000 0.750000
vt 0.375000 0.750000
vt 0.125000 0.750000
vt 0.625000 1.000000
vt 0.625000 0.750000
vt 0.625000 0.750000
vt 0.625000 1.000000
vt 0.625000 0.250000
vt 0.125000 0.500000
vt 0.125000 0.750000
vt 0.125000 0.500000
vt 0.375000 0.250000
vt 0.375000 0.250000
vt 0.125000 0.500000
vt 0.125000 0.500000
vt 0.125000 0.750000
vt 0.625000 0.250000
vt 0.375000 0.250000
vt 0.625000 0.000000
vt 0.375000 0.000000
vt 0.375000 0.500000
vt 0.625000 0.250000
vt 0.375000 0.500000
vt 0.625000 1.000000
vt 0.625000 0.750000
vt 0.625000 0.500000
vt 0.625000 0.250000
vt 0.375000 0.250000
vt 0.375000 0.750000
vt 0.625000 0.000000
vt 0.625000 0.250000
vt 0.625000 0.500000
vt 0.375000 0.500000
vt 0.625000 0.500000
vt 0.375000 0.000000
vt 0.625000 0.000000
vt 0.125000 0.750000
vt 0.125000 0.500000
vt 0.375000 0.250000
vn 0.0000 1.0000 0.0000
vn 1.0000 0.0000 0.0000
vn 0.0000 0.0000 1.0000
vn -1.0000 0.0000 0.0000
vn 0.0000 0.0000 -1.0000
vn 0.0000 -1.0000 0.0000
vn -0.7071 0.0000 0.7071
vn 0.7071 0.0000 -0.7071
vn 0.8944 0.4472 0.0000
vn 0.6247 0.0000 -0.7809
vn 0.0000 0.7809 -0.6247
vn 0.7071 0.0000 0.7071
vn 0.8944 -0.4472 0.0000
vn 0.0000 0.7809 0.6247
vn 0.0000 -0.4472 0.8944
vn 0.0000 0.4472 0.8944
vn 0.0000 0.6247 -0.7809
vn -0.8944 0.4472 0.0000
vn -0.8944 -0.4472 0.0000
vn -0.7071 0.0000 -0.7071
vn 0.7809 -0.6247 0.0000
vn 0.0000 -0.4472 -0.8944
vn 0.0000 0.4472 -0.8944
vn -0.6247 0.0000 -0.7809
vn -0.6247 -0.7809 0.0000
vn 0.0000 -0.6247 0.7809
vn 0.0000 -0.7809 0.6247
vn 0.0000 -0.7809 -0.6247
vn -0.6247 0.0000 0.7809
vn -0.7809 -0.6247 0.0000
vn -0.7809 0.0000 -0.6247
vn 0.0000 -0.6247 -0.7809
vn 0.7809 0.6247 0.0000
vn 0.6247 0.0000 0.7809
vn 0.0000 0.6247 0.7809
vn 0.7809 0.0000 0.6247
vn 0.6247 0.7809 0.0000
vn -0.6247 0.7809 0.0000
vn -0.7809 0.6247 0.0000
vn -0.7809 0.0000 0.6247
vn 0.7809 0.0000 -0.6247
vn 0.6247 -0.7809 0.0000
usemtl Material.003
s off
f 3/1/1 2/2/1 1/3/1 4/4/1
f 6/5/2 5/6/2 8/7/2 7/8/2
f 12/9/3 11/10/3 10/11/3 9/12/3
f 14/13/4 15/14/4 16/15/4 13/16/4
f 18/17/5 17/18/5 20/19/5 19/20/5
f 21/21/6 23/22/6 24/23/6 22/24/6
usemtl Material.001
f 25/25/7 26/26/7 47/27/7 46/28/7
f 32/29/8 31/30/8 51/31/8 52/32/8
f 32/29/9 30/33/9 40/34/9 37/35/9
f 26/26/7 25/25/7 41/36/7 42/37/7
f 29/38/6 25/39/6 54/40/6 56/41/6
f 30/33/1 32/29/1 35/42/1 36/43/1
f 40/34/10 39/44/10 63/45/10 64/46/10
f 28/47/1 26/26/1 33/48/1 34/49/1
f 26/50/1 30/33/1 36/43/1 33/51/1
f 32/29/1 28/47/1 34/49/1 35/42/1
f 51/31/11 50/52/11 74/53/11 75/54/11
f 31/30/8 32/29/8 37/35/8 38/55/8
f 30/33/12 29/38/12 39/44/12 40/34/12
f 29/38/13 31/30/13 38/55/13 39/44/13
f 41/56/14 44/57/14 68/58/14 65/59/14
f 25/39/15 29/38/15 44/57/15 41/56/15
f 30/33/16 26/50/16 42/60/16 43/61/16
f 29/38/12 30/33/12 43/61/12 44/57/12
f 33/51/17 36/43/17 60/62/17 57/63/17
f 26/26/18 28/47/18 48/64/18 47/27/18
f 27/65/19 25/39/19 46/66/19 45/67/19
f 28/47/20 27/68/20 45/69/20 48/64/20
f 54/40/21 53/70/21 77/71/21 78/72/21
f 31/30/22 27/65/22 50/52/22 51/31/22
f 28/47/23 32/29/23 52/32/23 49/73/23
f 27/68/20 28/47/20 49/73/20 50/74/20
f 46/28/24 47/27/24 71/75/24 70/76/24
f 27/65/6 31/30/6 55/77/6 53/70/6
f 25/39/6 27/65/6 53/70/6 54/40/6
f 31/30/6 29/38/6 56/41/6 55/77/6
f 47/27/25 48/64/25 72/78/25 71/75/25
f 53/70/26 55/77/26 79/79/26 77/71/26
f 43/61/27 42/60/27 66/80/27 67/81/27
f 49/73/28 52/32/28 76/82/28 73/83/28
f 48/64/29 45/69/29 69/84/29 72/78/29
f 55/77/30 56/41/30 80/85/30 79/79/30
f 52/32/31 51/31/31 75/54/31 76/82/31
f 56/41/32 54/40/32 78/72/32 80/85/32
f 34/49/33 33/48/33 57/86/33 58/87/33
f 38/55/34 37/35/34 61/88/34 62/89/34
f 35/42/35 34/49/35 58/87/35 59/90/35
f 42/37/36 41/36/36 65/91/36 66/92/36
f 39/44/37 38/55/37 62/89/37 63/45/37
f 45/67/38 46/66/38 70/93/38 69/94/38
f 36/43/39 35/42/39 59/90/39 60/62/39
f 44/57/40 43/61/40 67/81/40 68/58/40
f 50/74/41 49/73/41 73/83/41 74/95/41
f 37/35/42 40/34/42 64/46/42 61/88/42
