{"accessors":[{"bufferView":0,"byteOffset":0,"componentType":5126,"count":78,"max":[0.100000001490116,-0.00050000002375,0.100000001490116],"min":[-0.10000000149012,-0.00050000002375,-0.09807926416397],"normalized":false,"type":"VEC3"},{"bufferView":1,"byteOffset":0,"componentType":5126,"count":78,"max":[1,0.0000647405249765143,0.923894226551056,1],"min":[-0.92391693592072,-0.00002157951531,-0.92390692234039,-1],"normalized":false,"type":"VEC4"},{"bufferView":2,"byteOffset":0,"componentType":5126,"count":78,"max":[0,1,-0.00001525902189],"min":[0,-1,-0.00001525902189],"normalized":false,"type":"VEC3"},{"bufferView":3,"byteOffset":0,"componentType":5126,"count":78,"max":[1,0.5],"min":[0,0],"normalized":false,"type":"VEC2"},{"bufferView":4,"byteOffset":0,"componentType":5123,"count":78,"max":[77],"min":[0],"normalized":false,"type":"SCALAR"}],"asset":{"generator":"Godot Engine v4.3.stable.official@77dcf97d82cbfe4e4615475fa52ca03da645dbd8","version":"2.0"},"bufferViews":[{"buffer":0,"byteLength":936,"byteOffset":0,"byteStride":12,"target":34962},{"buffer":0,"byteLength":1248,"byteOffset":936,"byteStride":16,"target":34962},{"buffer":0,"byteLength":936,"byteOffset":2184,"byteStride":12,"target":34962},{"buffer":0,"byteLength":624,"byteOffset":3120,"byteStride":8,"target":34962},{"buffer":0,"byteLength":156,"byteOffset":3744,"target":34963}],"buffers":[{"byteLength":3900,"uri":"obstacle20.bin"}],"extensionsUsed":["GODOT_single_root","OMI_physics_body"],"materials":[{"extensions":{},"pbrMetallicRoughness":{"baseColorFactor":[0.99999988079071,0.99999988079071,0.99999988079071,1],"metallicFactor":0,"roughnessFactor":1}}],"meshes":[{"extras":{"targetNames":[]},"primitives":[{"attributes":{"NORMAL":2,"POSITION":0,"TANGENT":1,"TEXCOORD_0":3},"indices":4,"material":0,"mode":4}]}],"nodes":[{"children":[1],"name":"Node3D"},{"children":[2],"extensions":{"OMI_physics_body":{"motion":{"type":"static"}}},"name":"StaticBody3D"},{"children":[3,4],"mesh":0,"name":"CSGCombiner3D2","rotation":[0.70710676908493,0,0,0.70710676908493]},{"name":"CSGCylinder3D"},{"name":"CSGMesh3D","rotation":[-0.5,-0.5,0.5,-0.5],"scale":[0.100000001490116,0.100000001490116,0.100000001490116],"translation":[0.0453629307448864,-0.00000000271384,-0.06208550184965]}],"scene":0,"scenes":[{"nodes":[0]}]}