# Blender 3.5.1
# www.blender.org
mtllib obstacle2.mtl
o CSGCombiner3D2
v 0.077782 -0.077782 -0.000500
v 0.110000 0.000000 -0.000500
v 0.000000 0.000000 -0.000500
v 0.110000 0.000000 -0.000500
v 0.077782 -0.077782 -0.000500
v 0.000000 0.000000 -0.000500
v -0.000000 -0.110000 -0.000500
v 0.077782 -0.077782 -0.000500
v 0.000000 0.000000 -0.000500
v 0.077782 -0.077782 -0.000500
v -0.000000 -0.110000 -0.000500
v 0.000000 0.000000 -0.000500
v -0.077782 -0.077782 -0.000500
v -0.000000 -0.110000 -0.000500
v 0.000000 0.000000 -0.000500
v -0.000000 -0.110000 -0.000500
v -0.077782 -0.077782 -0.000500
v 0.000000 0.000000 -0.000500
v -0.110000 0.000000 -0.000500
v -0.077782 -0.077782 -0.000500
v 0.000000 0.000000 -0.000500
v -0.077782 -0.077782 -0.000500
v -0.110000 0.000000 -0.000500
v 0.000000 0.000000 -0.000500
v -0.077782 0.077782 -0.000500
v -0.110000 0.000000 -0.000500
v 0.000000 0.000000 -0.000500
v -0.110000 0.000000 -0.000500
v -0.077782 0.077782 -0.000500
v 0.000000 0.000000 -0.000500
v 0.000000 0.110000 -0.000500
v -0.077782 0.077782 -0.000500
v 0.000000 0.000000 -0.000500
v -0.077782 0.077782 -0.000500
v 0.000000 0.110000 -0.000500
v 0.000000 0.000000 -0.000500
v 0.051624 0.082008 -0.000500
v 0.077782 0.077782 -0.000500
v 0.058049 0.085955 -0.000500
v 0.000000 0.000000 -0.000500
v 0.077782 0.077782 -0.000500
v 0.051624 0.082008 -0.000500
v 0.000000 0.110000 -0.000500
v 0.000000 0.000000 -0.000500
v 0.023046 0.064450 -0.000500
v 0.000000 0.000000 -0.000500
v 0.051624 0.082008 -0.000500
v 0.023046 0.064450 -0.000500
v 0.000000 0.110000 -0.000500
v 0.023046 0.064450 -0.000500
v 0.020431 0.094336 -0.000500
v 0.020431 0.094336 -0.000500
v 0.019777 0.101808 -0.000500
v 0.000000 0.110000 -0.000500
v 0.058049 0.085955 -0.000500
v 0.077782 0.077782 -0.000500
v 0.051624 0.082008 -0.000500
v 0.077782 0.077782 -0.000500
v 0.000000 0.000000 -0.000500
v 0.051624 0.082008 -0.000500
v 0.000000 0.000000 -0.000500
v 0.000000 0.110000 -0.000500
v 0.023046 0.064450 -0.000500
v 0.051624 0.082008 -0.000500
v 0.000000 0.000000 -0.000500
v 0.023046 0.064450 -0.000500
v 0.023046 0.064450 -0.000500
v 0.000000 0.110000 -0.000500
v 0.020431 0.094336 -0.000500
v 0.019777 0.101808 -0.000500
v 0.020431 0.094336 -0.000500
v 0.000000 0.110000 -0.000500
v 0.110000 0.000000 -0.000500
v 0.077782 0.077782 -0.000500
v 0.000000 0.000000 -0.000500
v 0.077782 0.077782 -0.000500
v 0.110000 0.000000 -0.000500
v 0.000000 0.000000 -0.000500
vn -0.0000 -0.0000 -1.0000
vn -0.0000 -0.0000 1.0000
vt 0.853553 1.000000
vt 1.000000 1.000000
vt 0.500000 0.500000
vt 0.853553 1.000000
vt 1.000000 1.000000
vt 0.500000 0.500000
vt 0.500000 1.000000
vt 0.853553 1.000000
vt 0.500000 0.500000
vt 0.500000 1.000000
vt 0.853553 1.000000
vt 0.500000 0.500000
vt 0.146447 1.000000
vt 0.500000 1.000000
vt 0.500000 0.500000
vt 0.146447 1.000000
vt 0.500000 1.000000
vt 0.500000 0.500000
vt 0.000000 1.000000
vt 0.146447 1.000000
vt 0.500000 0.500000
vt 0.000000 1.000000
vt 0.146447 1.000000
vt 0.500000 0.500000
vt 0.146447 1.000000
vt 0.000000 1.000000
vt 0.500000 0.500000
vt 0.146447 1.000000
vt 0.000000 1.000000
vt 0.500000 0.500000
vt 0.500000 1.000000
vt 0.146447 1.000000
vt 0.500000 0.500000
vt 0.500000 1.000000
vt 0.146447 1.000000
vt 0.500000 0.500000
vt 0.734654 0.969959
vt 0.853553 1.000000
vt 0.763861 1.000000
vt 0.500000 0.500000
vt 0.853553 1.000000
vt 0.734654 0.969959
vt 0.500000 1.000000
vt 0.500000 0.500000
vt 0.604752 0.836344
vt 0.500000 0.500000
vt 0.734654 0.969959
vt 0.604752 0.836344
vt 0.500000 1.000000
vt 0.604752 0.836344
vt 0.592867 0.967266
vt 0.592867 0.967266
vt 0.589896 1.000000
vt 0.500000 1.000000
vt 0.589692 1.000000
vt 0.500000 1.000000
vt 0.597656 0.969959
vt 0.500000 1.000000
vt 0.500000 0.500000
vt 0.597656 0.969959
vt 0.500000 0.500000
vt 0.853553 1.000000
vt 0.633079 0.836344
vt 0.597656 0.969959
vt 0.500000 0.500000
vt 0.633079 0.836344
vt 0.633079 0.836344
vt 0.853553 1.000000
vt 0.737539 0.967266
vt 0.763657 1.000000
vt 0.737539 0.967266
vt 0.853553 1.000000
vt 1.000000 1.000000
vt 0.853553 1.000000
vt 0.500000 0.500000
vt 1.000000 1.000000
vt 0.853553 1.000000
vt 0.500000 0.500000
s 0
usemtl Material_0
f 1/1/1 3/3/1 2/2/1
f 4/4/2 6/6/2 5/5/2
f 7/7/1 9/9/1 8/8/1
f 10/10/2 12/12/2 11/11/2
f 13/13/1 15/15/1 14/14/1
f 16/16/2 18/18/2 17/17/2
f 19/19/1 21/21/1 20/20/1
f 22/22/2 24/24/2 23/23/2
f 25/25/1 27/27/1 26/26/1
f 28/28/2 30/30/2 29/29/2
f 31/31/1 33/33/1 32/32/1
f 34/34/2 36/36/2 35/35/2
f 37/37/1 39/39/1 38/38/1
f 40/40/1 42/42/1 41/41/1
f 43/43/1 45/45/1 44/44/1
f 46/46/1 48/48/1 47/47/1
f 49/49/1 51/51/1 50/50/1
f 52/52/1 54/54/1 53/53/1
f 55/55/2 57/57/2 56/56/2
f 58/58/2 60/60/2 59/59/2
f 61/61/2 63/63/2 62/62/2
f 64/64/2 66/66/2 65/65/2
f 67/67/2 69/69/2 68/68/2
f 70/70/2 72/72/2 71/71/2
f 73/73/1 75/75/1 74/74/1
f 76/76/2 78/78/2 77/77/2
